<svg width="26" height="25" viewBox="0 0 26 25" fill="none" xmlns="http://www.w3.org/2000/svg">
<path d="M13 0.0848999C5.8318 0.0848999 0 4.54717 0 10.0314C0 13.647 2.4661 16.8883 6.5 18.6526V24.9513L13.442 19.973C20.4061 19.794 26 15.4026 26 10.0314C26 4.54717 20.1682 0.0848999 13 0.0848999ZM13 17.4913H12.5671L9.1 19.978V16.9729L8.2667 16.6658C4.7723 15.379 2.6 12.8364 2.6 10.0314C2.6 5.9173 7.2657 2.57154 13 2.57154C18.7343 2.57154 23.4 5.9173 23.4 10.0314C23.4 14.1456 18.7343 17.4913 13 17.4913Z" fill="#1D405B"/>
<path d="M10 10.8964C11.1046 10.8964 12 10.1703 12 9.27464C12 8.37899 11.1046 7.65292 10 7.65292C8.89543 7.65292 8 8.37899 8 9.27464C8 10.1703 8.89543 10.8964 10 10.8964Z" fill="#1D405B"/>
<path d="M17.5 9.27464C17.5 9.80131 16.9315 10.3964 16 10.3964C15.0685 10.3964 14.5 9.80131 14.5 9.27464C14.5 8.74797 15.0685 8.15292 16 8.15292C16.9315 8.15292 17.5 8.74797 17.5 9.27464Z" fill="#1D405B" stroke="black"/>
</svg>
