<svg width="15" height="19" viewBox="0 0 15 19" fill="none" xmlns="http://www.w3.org/2000/svg">
<path d="M8.507 5.30792V0.526672H1.21533C0.730436 0.526672 0.340332 0.902844 0.340332 1.37042V17.6829C0.340332 18.1505 0.730436 18.5267 1.21533 18.5267H13.4653C13.9502 18.5267 14.3403 18.1505 14.3403 17.6829V6.15167H9.382C8.90075 6.15167 8.507 5.77198 8.507 5.30792ZM10.8403 13.6048C10.8403 13.8368 10.6435 14.0267 10.4028 14.0267H4.27783C4.03721 14.0267 3.84033 13.8368 3.84033 13.6048V13.3235C3.84033 13.0915 4.03721 12.9017 4.27783 12.9017H10.4028C10.6435 12.9017 10.8403 13.0915 10.8403 13.3235V13.6048ZM10.8403 11.3548C10.8403 11.5868 10.6435 11.7767 10.4028 11.7767H4.27783C4.03721 11.7767 3.84033 11.5868 3.84033 11.3548V11.0735C3.84033 10.8415 4.03721 10.6517 4.27783 10.6517H10.4028C10.6435 10.6517 10.8403 10.8415 10.8403 11.0735V11.3548ZM10.8403 8.82355V9.1048C10.8403 9.33683 10.6435 9.52667 10.4028 9.52667H4.27783C4.03721 9.52667 3.84033 9.33683 3.84033 9.1048V8.82355C3.84033 8.59152 4.03721 8.40167 4.27783 8.40167H10.4028C10.6435 8.40167 10.8403 8.59152 10.8403 8.82355ZM14.3403 4.81222V5.02667H9.67367V0.526672H9.89606C10.1294 0.526672 10.3518 0.614563 10.5159 0.772766L14.0851 4.21808C14.2492 4.37628 14.3403 4.59073 14.3403 4.81222Z" fill="#1D405B"/>
</svg>
