<svg width="27" height="27" viewBox="0 0 27 27" fill="none" xmlns="http://www.w3.org/2000/svg">
<path d="M12.4583 2.96213C12.8183 2.01263 14.1806 2.01263 14.5418 2.96213L16.8705 9.41287C16.9518 9.62301 17.0948 9.80357 17.2808 9.93071C17.4668 10.0578 17.687 10.1256 17.9123 10.125H23.6352C24.6927 10.125 25.1539 11.4413 24.3225 12.0859L20.25 15.75C20.0676 15.8902 19.9343 16.0847 19.8692 16.3054C19.8041 16.5261 19.8106 16.7617 19.8878 16.9785L21.375 23.2819C21.7373 24.2944 20.565 25.164 19.6785 24.5407L14.1469 21.0308C13.9575 20.8976 13.7316 20.8262 13.5 20.8262C13.2685 20.8262 13.0426 20.8976 12.8532 21.0308L7.32153 24.5407C6.43615 25.164 5.26278 24.2932 5.62503 23.2819L7.11228 16.9785C7.18943 16.7617 7.19593 16.5261 7.13085 16.3054C7.06577 16.0847 6.93245 15.8902 6.75003 15.75L2.67753 12.0859C1.84503 11.4413 2.30853 10.125 3.36378 10.125H9.08665C9.31198 10.1258 9.53222 10.0581 9.71824 9.93091C9.90427 9.80374 10.0473 9.6231 10.1284 9.41287L12.4571 2.96213H12.4583Z" stroke="white" stroke-width="2" stroke-linecap="round" stroke-linejoin="round"/>
</svg>
