<svg width="30" height="27" viewBox="0 0 30 27" fill="none" xmlns="http://www.w3.org/2000/svg">
<path d="M9 4.05001H21C21.3978 4.05001 21.7794 4.19224 22.0607 4.44542C22.342 4.69859 22.5 5.04197 22.5 5.40001V12.1797C23.0075 12.2211 23.5096 12.3047 24 12.4295V5.40001C24 4.68393 23.6839 3.99717 23.1213 3.49082C22.5587 2.98448 21.7956 2.70001 21 2.70001H9C8.20435 2.70001 7.44129 2.98448 6.87868 3.49082C6.31607 3.99717 6 4.68393 6 5.40001V21.6C6 22.3161 6.31607 23.0029 6.87868 23.5092C7.44129 24.0155 8.20435 24.3 9 24.3H15.3855C15.0035 23.8836 14.673 23.4309 14.4 22.95H9C8.60218 22.95 8.22064 22.8078 7.93934 22.5546C7.65804 22.3014 7.5 21.9581 7.5 21.6H13.8105C13.6717 21.1587 13.5788 20.7068 13.533 20.25H7.5V5.40001C7.5 5.04197 7.65804 4.69859 7.93934 4.44542C8.22064 4.19224 8.60218 4.05001 9 4.05001ZM10.5 5.40001C10.1022 5.40001 9.72064 5.54224 9.43934 5.79542C9.15804 6.04859 9 6.39197 9 6.75001V8.10001C9 8.45805 9.15804 8.80143 9.43934 9.05461C9.72064 9.30778 10.1022 9.45001 10.5 9.45001H19.5C19.8978 9.45001 20.2794 9.30778 20.5607 9.05461C20.842 8.80143 21 8.45805 21 8.10001V6.75001C21 6.39197 20.842 6.04859 20.5607 5.79542C20.2794 5.54224 19.8978 5.40001 19.5 5.40001H10.5ZM19.5 6.75001V8.10001H10.5V6.75001H19.5ZM28.5 19.575C28.5 21.1862 27.7888 22.7314 26.523 23.8707C25.2571 25.01 23.5402 25.65 21.75 25.65C19.9598 25.65 18.2429 25.01 16.977 23.8707C15.7112 22.7314 15 21.1862 15 19.575C15 17.9638 15.7112 16.4186 16.977 15.2793C18.2429 14.1401 19.9598 13.5 21.75 13.5C23.5402 13.5 25.2571 14.1401 26.523 15.2793C27.7888 16.4186 28.5 17.9638 28.5 19.575V19.575ZM21.03 16.9209C20.9327 16.8608 20.8197 16.8246 20.7021 16.8158C20.5845 16.807 20.4664 16.8261 20.3595 16.871C20.2722 16.9055 20.1933 16.955 20.127 17.0168C19.9873 17.1456 19.9092 17.3186 19.9095 17.4987V21.65C19.9086 21.7394 19.9273 21.8282 19.9647 21.9112C20.002 21.9941 20.0572 22.0696 20.127 22.1333C20.1955 22.1945 20.2751 22.2448 20.3625 22.2818C20.5147 22.3445 20.6874 22.3541 20.847 22.3088C20.9161 22.2883 20.9818 22.2592 21.042 22.2224L24.486 20.1069C24.5908 20.0448 24.6752 19.9585 24.7305 19.8572C24.7875 19.755 24.8168 19.6422 24.816 19.528C24.8152 19.4137 24.7844 19.3012 24.726 19.1997C24.6673 19.0998 24.5811 19.0152 24.4755 18.954L21.03 16.9209V16.9209Z" fill="white"/>
</svg>
