<svg width="30" height="30" viewBox="0 0 30 30" fill="none" xmlns="http://www.w3.org/2000/svg">
<path d="M3.75 2.625V4.5H24.375V19.5H11.25V21.375H28.125V19.5H26.25V2.625H3.75ZM7.50187 5.4375C6.5082 5.44096 5.55619 5.8371 4.85338 6.53956C4.15057 7.24202 3.75395 8.19383 3.75 9.1875C3.75 11.2491 5.44125 12.9375 7.50187 12.9375C8.49505 12.9335 9.44639 12.5371 10.1485 11.8347C10.8506 11.1322 11.2465 10.1807 11.25 9.1875C11.25 7.12781 9.56062 5.4375 7.50187 5.4375ZM13.125 6.375V8.25H17.8125V6.375H13.125ZM19.6875 6.375V8.25H22.5V6.375H19.6875ZM7.50187 7.3125C8.54625 7.3125 9.375 8.14031 9.375 9.1875C9.375 10.2375 8.54719 11.0625 7.50187 11.0625C6.45187 11.0625 5.625 10.2375 5.625 9.1875C5.625 8.14031 6.45281 7.3125 7.50187 7.3125V7.3125ZM13.125 10.125V12H22.5V10.125H13.125ZM3.75 13.875V21.375H5.625V15.75H8.4375V21.375H10.3125V16.3669L12.2475 17.3906C12.7959 17.6813 13.455 17.6803 14.0025 17.3906V17.3925L17.3119 15.6422L16.4372 13.9828L13.1269 15.7331L10.2244 14.2012C9.8193 13.9872 9.36813 13.8753 8.91 13.875H3.75Z" fill="white"/>
</svg>
