<svg width="22" height="22" viewBox="0 0 22 22" fill="none" xmlns="http://www.w3.org/2000/svg">
<path d="M3.66671 1.83331C3.18048 1.83331 2.71416 2.02647 2.37034 2.37028C2.02653 2.7141 1.83337 3.18042 1.83337 3.66665V14.6666C1.83337 15.1529 2.02653 15.6192 2.37034 15.963C2.71416 16.3068 3.18048 16.5 3.66671 16.5H7.33337V19.25C7.33337 19.4931 7.42995 19.7263 7.60186 19.8982C7.77377 20.0701 8.00693 20.1666 8.25004 20.1666H8.70837C8.93754 20.1666 9.16671 20.075 9.35004 19.9008L12.7417 16.5H18.3334C18.8196 16.5 19.2859 16.3068 19.6297 15.963C19.9736 15.6192 20.1667 15.1529 20.1667 14.6666V3.66665C20.1667 3.18042 19.9736 2.7141 19.6297 2.37028C19.2859 2.02647 18.8196 1.83331 18.3334 1.83331H3.66671ZM3.66671 3.66665H18.3334V14.6666H11.99L9.16671 17.49V14.6666H3.66671V3.66665ZM11.1742 5.04165C10.3584 5.04165 9.70754 5.20665 9.21254 5.53665C8.70837 5.86665 8.45171 6.41665 8.49754 7.04915H10.3034C10.3034 6.79248 10.395 6.59998 10.5417 6.47165C10.725 6.34331 10.9267 6.27915 11.1742 6.27915C11.4584 6.27915 11.7059 6.35248 11.8709 6.51748C12.0359 6.67331 12.1184 6.87498 12.1184 7.14998C12.1184 7.40665 12.045 7.63581 11.9167 7.82831C11.7609 8.02998 11.5684 8.19498 11.33 8.32331C10.8534 8.61665 10.5417 8.87331 10.3492 9.09331C10.175 9.31331 10.0834 9.62498 10.0834 10.0833H11.9167C11.9167 9.82665 11.9625 9.62498 12.045 9.45998C12.1275 9.30415 12.2834 9.16665 12.5217 9.02915C12.9434 8.83665 13.2917 8.57998 13.5575 8.24998C13.8234 7.91081 13.9609 7.55331 13.9609 7.14998C13.9609 6.50831 13.7134 5.99498 13.2184 5.60998C12.7234 5.23415 12.0359 5.04165 11.1742 5.04165M10.0834 11V12.8333H11.9167V11H10.0834Z" fill="#1D405B"/>
</svg>
