<svg width="31" height="30" viewBox="0 0 31 30" fill="none" xmlns="http://www.w3.org/2000/svg">
<path fill-rule="evenodd" clip-rule="evenodd" d="M5 7.37167C5 6.97385 5.15804 6.59232 5.43934 6.31101C5.72064 6.02971 6.10217 5.87167 6.5 5.87167H24.5C24.8978 5.87167 25.2794 6.02971 25.5607 6.31101C25.842 6.59232 26 6.97385 26 7.37167C26 7.7695 25.842 8.15103 25.5607 8.43233C25.2794 8.71364 24.8978 8.87167 24.5 8.87167H6.5C6.10217 8.87167 5.72064 8.71364 5.43934 8.43233C5.15804 8.15103 5 7.7695 5 7.37167Z" fill="#2A5679"/>
<path fill-rule="evenodd" clip-rule="evenodd" d="M5 15.3717C5 14.9738 5.15804 14.5923 5.43934 14.311C5.72064 14.0297 6.10217 13.8717 6.5 13.8717H24.5C24.8978 13.8717 25.2794 14.0297 25.5607 14.311C25.842 14.5923 26 14.9738 26 15.3717C26 15.7695 25.842 16.151 25.5607 16.4323C25.2794 16.7136 24.8978 16.8717 24.5 16.8717H6.5C6.10217 16.8717 5.72064 16.7136 5.43934 16.4323C5.15804 16.151 5 15.7695 5 15.3717Z" fill="#2A5679"/>
<path fill-rule="evenodd" clip-rule="evenodd" d="M14 23.3717C14 22.9738 14.158 22.5923 14.4393 22.311C14.7206 22.0297 15.1022 21.8717 15.5 21.8717H24.5C24.8978 21.8717 25.2794 22.0297 25.5607 22.311C25.842 22.5923 26 22.9738 26 23.3717C26 23.7695 25.842 24.151 25.5607 24.4323C25.2794 24.7136 24.8978 24.8717 24.5 24.8717H15.5C15.1022 24.8717 14.7206 24.7136 14.4393 24.4323C14.158 24.151 14 23.7695 14 23.3717Z" fill="#2A5679"/>
</svg>
