<svg width="21" height="25" viewBox="0 0 21 25" fill="none" xmlns="http://www.w3.org/2000/svg">
<path d="M16.134 11.7687C16.715 17.6812 19 19.4687 19 19.4687H1C1 19.4687 4 17.1224 4 8.90867C4 7.04197 4.632 5.25118 5.757 3.93118C6.883 2.61118 8.41 1.86868 10 1.86868C10.337 1.86868 10.672 1.90168 11 1.96768" stroke="#1D405B" stroke-width="2" stroke-linecap="round" stroke-linejoin="round"/>
<path d="M17 8.46867C17.7956 8.46867 18.5587 8.12099 19.1213 7.50213C19.6839 6.88326 20 6.04389 20 5.16868C20 4.29346 19.6839 3.4541 19.1213 2.83523C18.5587 2.21636 17.7956 1.86868 17 1.86868C16.2044 1.86868 15.4413 2.21636 14.8787 2.83523C14.3161 3.4541 14 4.29346 14 5.16868C14 6.04389 14.3161 6.88326 14.8787 7.50213C15.4413 8.12099 16.2044 8.46867 17 8.46867Z" stroke="#1D405B" stroke-width="2" stroke-linecap="round" stroke-linejoin="round"/>
<path d="M11.73 22.7686C11.5544 23.1023 11.3021 23.3793 10.9985 23.5719C10.6949 23.7645 10.3505 23.8658 10 23.8658C9.64952 23.8658 9.30519 23.7645 9.00154 23.5719C8.6979 23.3793 8.44563 23.1023 8.27002 22.7686" stroke="#1D405B" stroke-width="2" stroke-linecap="round" stroke-linejoin="round"/>
</svg>
