<svg width="21" height="20" viewBox="0 0 21 20" fill="none" xmlns="http://www.w3.org/2000/svg">
<path d="M10.5625 5.625C8.125 5.625 6.1875 7.5625 6.1875 10C6.1875 12.4375 8.125 14.375 10.5625 14.375C13 14.375 14.9375 12.4375 14.9375 10C14.9375 7.5625 13 5.625 10.5625 5.625ZM10.5625 13.125C8.8125 13.125 7.4375 11.75 7.4375 10C7.4375 8.25 8.8125 6.875 10.5625 6.875C12.3125 6.875 13.6875 8.25 13.6875 10C13.6875 11.75 12.3125 13.125 10.5625 13.125Z" fill="#1D405B"/>
<path d="M19.75 7.9375L18 7.375L17.625 6.4375L18.5 4.8125C18.6875 4.4375 18.625 3.9375 18.3125 3.625L16.8125 2.125C16.5 1.8125 16 1.75 15.625 1.9375L14 2.8125L13.0625 2.4375L12.5 0.6875C12.375 0.3125 12 0 11.5625 0H9.4375C9 0 8.625 0.3125 8.5625 0.75L8 2.5C7.625 2.5625 7.3125 2.6875 7 2.875L5.375 2C5 1.8125 4.5 1.875 4.1875 2.1875L2.6875 3.6875C2.375 4 2.3125 4.5 2.5 4.875L3.3125 6.4375C3.1875 6.75 3.0625 7.125 2.9375 7.4375L1.1875 8C0.8125 8.125 0.5 8.5 0.5 8.9375V11.0625C0.5 11.5 0.8125 11.875 1.25 12L3 12.5625L3.375 13.5L2.5 15.125C2.3125 15.5 2.375 16 2.6875 16.3125L4.1875 17.8125C4.5 18.125 5 18.1875 5.375 18L7 17.125L7.9375 17.5L8.5 19.3125C8.625 19.6875 9 20 9.4375 20H11.5625C12 20 12.375 19.6875 12.5 19.3125L13.0625 17.5L14 17.125L15.625 18C16 18.1875 16.5 18.125 16.8125 17.8125L18.3125 16.3125C18.625 16 18.6875 15.5 18.5 15.125L17.625 13.5L18 12.5625L19.8125 12C20.1875 11.875 20.5 11.5 20.5 11.0625V8.9375C20.5 8.5 20.1875 8.0625 19.75 7.9375V7.9375ZM19.25 10.875L17 11.5625L16.9375 11.875L16.375 13.1875L16.1875 13.5L17.3125 15.5625L16.0625 16.8125L14 15.6875L13.6875 15.875C13.25 16.125 12.8125 16.3125 12.375 16.4375L12.0625 16.5L11.375 18.75H9.625L8.9375 16.5L8.625 16.4375L7.3125 15.875L7 15.6875L4.9375 16.8125L3.6875 15.5625L4.8125 13.5L4.625 13.1875C4.375 12.75 4.1875 12.3125 4.0625 11.875L4 11.5625L1.75 10.875V9.125L3.875 8.5L4 8.1875C4.125 7.6875 4.3125 7.25 4.5625 6.8125L4.75 6.5L3.6875 4.4375L4.9375 3.1875L6.9375 4.3125L7.25 4.125C7.6875 3.875 8.125 3.6875 8.625 3.5625L8.9375 3.4375L9.625 1.25H11.375L12.0625 3.4375L12.375 3.5625C12.8125 3.6875 13.25 3.875 13.6875 4.125L14 4.3125L16.0625 3.1875L17.3125 4.4375L16.1875 6.5L16.375 6.8125C16.625 7.25 16.8125 7.6875 16.9375 8.125L17 8.4375L19.25 9.125V10.875V10.875Z" fill="#1D405B"/>
</svg>
